# xmcd
#
# Track frame offsets: 
#        150
#        14990
#        38535
#        52939
#        71164
#        84088
#        99872
#        125389
#        143484
#        158736
#
# Disc length: 2380 seconds
#
# Revision: 0
# Processed by: cddbd v1.5.2PL0 Copyright (c) Steve Scherf et al.
# Submitted via: ExactAudioCopy v0.99pb3
#
DISCID=73094a0a
DTITLE=Travis Haddix - Daylight At Midnight
DYEAR=2008
DGENRE=Blues
TTITLE0=Word a Lie
TTITLE1=Backward Baby
TTITLE2=Nine Behind
TTITLE3=Who Could I Be?
TTITLE4=Daylight at Midnight
TTITLE5=Way Back in the Country
TTITLE6=You Kind Of Fool
TTITLE7=What To Do
TTITLE8=Good Buddy Blues
TTITLE9=Blues Leftovers
EXTD=
EXTT0=
EXTT1=
EXTT2=
EXTT3=
EXTT4=
EXTT5=
EXTT6=
EXTT7=
EXTT8=
EXTT9=
PLAYORDER=
